<svg xmlns="http://www.w3.org/2000/svg" viewBox="0 0 350 250"><defs><style>.cls-1{fill:#d8855b;}.cls-2{fill:none;stroke:#0e0e51;stroke-width:2.39px;}.cls-2,.cls-5{stroke-linecap:round;stroke-linejoin:round;}.cls-3{fill:#ccf28b;stroke:#fff;stroke-miterlimit:10;stroke-width:2px;}.cls-4{fill:#0e0e51;}.cls-5{fill:#3b3b49;stroke:#3b3b49;stroke-width:1.29px;}.cls-6{fill:#6444d8;}.cls-7{fill:#ff5f5f;}</style></defs><title>GradeCraft--Mockups-GettingStarted_v12</title><g id="newGraphics"><path class="cls-1" d="M286.81,185c.26-11.59-5.35-32.68-10-43.37-2.26-5.21-6.82-11.89-11.85-18.18a75,75,0,0,0-14.15-13c-1-.67-7.66-3.68-9.21-.55-1.46,3-.38,5,1,7.3,2.83,4.58,8.68,6.54,16.16,13.92a69.42,69.42,0,0,1,11,14.3c5.1,9,11.4,25.89,13.36,36.58C284.4,188.88,286.75,187.6,286.81,185Z"/><path class="cls-2" d="M114,195.27l7.35-1.48C128,187,122.82,172,122.82,172"/><polyline class="cls-2" points="120.43 199.45 121.37 193.79 127.43 199.18"/><path class="cls-2" d="M140,197.63l6.32-4c4.07-8.57-5.61-21.15-5.61-21.15"/><polyline class="cls-2" points="146.13 199.73 146.32 193.61 152.14 198.83"/><path class="cls-3" d="M223.07,78c-5.94.54-14.32-.83-18.7-3.15-9-4.78-41.76-25.64-67.24-24.54C93.62,52.19,59.64,72.65,63.48,123c3.28,42.89,53.27,61.45,76.14,57.91,20.4-3.16,31-9.79,44.61-17.71,15.07-8.78,28.38-27.07,32.91-29.92,2.44-1.53,6.4-1.88,10.68-2.26a26.6,26.6,0,0,0-4.75-53Z"/><path class="cls-4" d="M231.82,103.81c-1,2.48-2.3-.33-4.78-1.35s-5.22.12-4.19-2.36a4.85,4.85,0,1,1,9,3.71Z"/><path class="cls-5" d="M121.8,69.47a5.34,5.34,0,0,0,4.29-2,5.76,5.76,0,0,0-4.26-1.56C118.92,65.89,118.89,69.47,121.8,69.47Z"/><path class="cls-5" d="M159.31,75.47a5.35,5.35,0,0,0,4.29-2,5.75,5.75,0,0,0-4.26-1.57C156.43,71.89,156.4,75.47,159.31,75.47Z"/><path class="cls-5" d="M126.09,97.1a5.36,5.36,0,0,0,4.3-2,5.76,5.76,0,0,0-4.27-1.57C123.22,93.52,123.19,97.1,126.09,97.1Z"/><path class="cls-5" d="M133.72,158.77a5.34,5.34,0,0,0,4.29-2,5.76,5.76,0,0,0-4.26-1.56C130.85,155.19,130.82,158.77,133.72,158.77Z"/><path class="cls-5" d="M98.65,142.36a5.35,5.35,0,0,0,4.29-2,5.76,5.76,0,0,0-4.26-1.56C95.78,138.79,95.75,142.36,98.65,142.36Z"/><path class="cls-5" d="M162.53,103a5.36,5.36,0,0,1,4.3,2,5.77,5.77,0,0,1-4.27,1.56C159.66,106.59,159.63,103,162.53,103Z"/><path class="cls-5" d="M173.42,135.21a5.36,5.36,0,0,1,4.3,2,5.76,5.76,0,0,1-4.27,1.57C170.55,138.79,170.52,135.21,173.42,135.21Z"/><path class="cls-5" d="M130.49,124.36a5.38,5.38,0,0,1,4.3,2,5.8,5.8,0,0,1-4.27,1.56C127.62,127.93,127.59,124.36,130.49,124.36Z"/><path class="cls-5" d="M92.19,98.89a5.38,5.38,0,0,0,4.3-2,5.8,5.8,0,0,0-4.27-1.56C89.32,95.31,89.29,98.89,92.19,98.89Z"/><path class="cls-6" d="M215.37,74.68s17,8.55,37.13,7.91C252.5,82.59,229.78,93.53,215.37,74.68Z"/><path class="cls-6" d="M224.43,78.51S234.58,63.45,234.79,58c0,0,7.77,7.79,7.14,24.1C241.93,82.14,228.82,83.89,224.43,78.51Z"/><path class="cls-7" d="M215.35,106.77c-.25.94-2.17,1.25-4.3.69s-3.63-1.78-3.39-2.72,2.17-1.25,4.3-.69S215.59,105.83,215.35,106.77Z"/></g></svg>