<svg xmlns="http://www.w3.org/2000/svg" viewBox="0 0 350 250"><defs><style>.cls-1{fill:#ffdb45;}.cls-2{fill:#a1b1bf;}.cls-10,.cls-3{fill:#3b3b49;}.cls-3{stroke:#fff;stroke-width:2px;}.cls-3,.cls-5{stroke-miterlimit:10;}.cls-4{fill:#ff7469;}.cls-5,.cls-8{fill:#42e29d;}.cls-5,.cls-6{stroke:#42e29d;stroke-width:0.73px;}.cls-6{fill:none;stroke-linecap:round;stroke-linejoin:round;}.cls-7{fill:#fff;}.cls-9{fill:#ffc7c3;}</style></defs><title>GradeCraft--Mockups-GettingStarted_v12</title><g id="newGraphics"><path class="cls-1" d="M213.22,195.12c0,3.32-7,3.69-14.45,3.86-24.16.54-16-12.44-14-14.09,1.13-.94-7,6.32,17.16,6.33C210,191.23,213.22,190.57,213.22,195.12Z"/><path class="cls-1" d="M135.48,196.14c0,3.31,7,3.69,14.46,3.85,24.16.54,16-12.44,14-14.09-1.13-.94,7,6.32-17.17,6.34C138.71,192.24,135.48,191.58,135.48,196.14Z"/><path class="cls-2" d="M69.53,133.52c0-10.89,17.34-22.78,41.51-22.78s45.11,11,45.11,16.12-19.59-.59-43.75-.71C90.45,126,69.53,145.4,69.53,133.52Z"/><path class="cls-2" d="M272.58,114.6c0,10.89-17.34,22.78-41.51,22.78S186,126.37,186,121.26s19.59.59,43.75.71C251.66,122.08,272.58,102.72,272.58,114.6Z"/><path class="cls-3" d="M212.42,109.67c-.15-.41,0-.87,0-1.31,0-17.77-17.06-32.17-38.11-32.17s-38.1,14.4-38.1,32.17c0,.44.19.9,0,1.31-4.45,12.06-14.22,22-14.22,35.83a52.29,52.29,0,0,0,104.57,0C226.64,131.63,216.87,121.73,212.42,109.67Z"/><rect class="cls-4" x="207.75" y="71.59" width="4.54" height="4.54" transform="translate(113.76 -126.88) rotate(45.01)"/><rect class="cls-4" x="262.15" y="99.9" width="4.54" height="4.54" transform="translate(149.7 -157.05) rotate(45)"/><rect class="cls-4" x="242.67" y="51.47" width="4.54" height="4.54" transform="translate(109.74 -157.46) rotate(45)"/><rect class="cls-4" x="119.64" y="51.47" width="4.54" height="4.54" transform="translate(73.71 -70.46) rotate(45)"/><rect class="cls-4" x="75.29" y="97.02" width="4.54" height="4.54" transform="translate(92.93 -25.76) rotate(45)"/><rect class="cls-4" x="106.42" y="101.61" width="4.54" height="4.54" transform="translate(105.29 -46.43) rotate(45)"/><rect class="cls-4" x="84.34" y="59.71" width="4.54" height="4.54" transform="translate(69.19 -43.09) rotate(45)"/><rect class="cls-4" x="239.98" y="82.05" width="4.54" height="4.54" transform="translate(353.91 315.24) rotate(-135)"/><rect class="cls-4" x="216.68" y="101.07" width="4.54" height="4.54" transform="translate(300.69 331.23) rotate(-135)"/><path class="cls-5" d="M226.33,74.54h0a1.89,1.89,0,0,1-1.89-1.89h0a1.89,1.89,0,0,1,1.89-1.88h0a1.88,1.88,0,0,1,1.88,1.88h0A1.89,1.89,0,0,1,226.33,74.54Z"/><path class="cls-6" d="M228.21,72.65V62s2.65,2.06,4.3,1.73"/><path class="cls-5" d="M99,90.6h0a1.89,1.89,0,0,1-1.88-1.89h0A1.88,1.88,0,0,1,99,86.83h0a1.88,1.88,0,0,1,1.88,1.88h0A1.89,1.89,0,0,1,99,90.6Z"/><path class="cls-6" d="M100.91,88.71V78s2.65,2.06,4.3,1.73"/><path class="cls-5" d="M269.5,73.23h0a1.89,1.89,0,0,1-.69,2.58h0a1.89,1.89,0,0,1-2.58-.69h0a1.89,1.89,0,0,1,.69-2.58h0A1.9,1.9,0,0,1,269.5,73.23Z"/><path class="cls-6" d="M266.92,72.54l-9.24,5.34s.46-3.32-.65-4.59"/><path class="cls-5" d="M129.69,66.76h0a1.89,1.89,0,0,0-1.89,1.88h0a1.89,1.89,0,0,0,1.89,1.89h0a1.89,1.89,0,0,0,1.88-1.89h0A1.88,1.88,0,0,0,129.69,66.76Z"/><path class="cls-6" d="M131.57,68.64V79.32s2.64-2.06,4.3-1.73"/><ellipse class="cls-7" cx="174.65" cy="161.3" rx="37.09" ry="35.01"/><path class="cls-8" d="M185.06,132c-4,0-7.3-4.5-7.3-4.5s3.27-4.5,7.3-4.5S189.09,132,185.06,132Z"/><path class="cls-8" d="M170.46,132c4,0,7.3-4.5,7.3-4.5s-3.27-4.5-7.3-4.5S166.43,132,170.46,132Z"/><path class="cls-4" d="M179.56,127.53a1.81,1.81,0,1,0-1.8,1.8A1.8,1.8,0,0,0,179.56,127.53Z"/><path class="cls-1" d="M183.6,115.71c-1.48.31-4,1.72-5.79,1.72s-4.32-1.45-5.81-1.76c-.43-.09-.78-.19-.78-.63a.8.8,0,0,1,.8-.79,3.74,3.74,0,0,0,.76,0c.71-.19,3.25-3,5-3s4.45,2.88,5,3a6.37,6.37,0,0,0,.77,0,.79.79,0,0,1,.79.79C184.39,115.48,184,115.63,183.6,115.71Z"/><path class="cls-7" d="M190.55,106.37a2.32,2.32,0,1,1-2.32-2.32A2.32,2.32,0,0,1,190.55,106.37Z"/><path class="cls-7" d="M169.7,106.37a2.32,2.32,0,1,1-2.32-2.32A2.32,2.32,0,0,1,169.7,106.37Z"/><path class="cls-9" d="M164,113.94c0,.55-1,1-2.26,1s-2.26-.46-2.26-1,1-1,2.26-1S164,113.38,164,113.94Z"/><path class="cls-9" d="M195.93,113.94c0,.55-1,1-2.26,1s-2.27-.45-2.27-1,1-1,2.27-1S195.93,113.38,195.93,113.94Z"/><path class="cls-10" d="M173.47,82.07s3.16-1.63,8.29.36a7.43,7.43,0,0,0,8.29-1.69S185.75,91.72,173.47,82.07Z"/><path class="cls-10" d="M173.52,81.94s2.21-2.79,7.7-3.1a7.43,7.43,0,0,0,6.85-5S188.7,85.64,173.52,81.94Z"/><path class="cls-10" d="M173.47,82s.31-3.55,4.73-6.82a7.44,7.44,0,0,0,3-7.92S188.18,76.8,173.47,82Z"/></g></svg>