<svg xmlns="http://www.w3.org/2000/svg" viewBox="0 0 350 250"><defs><style>.cls-1{fill:#0e0e51;}.cls-2{fill:#ffdb45;}.cls-3{fill:#db2886;}.cls-4{fill:none;stroke:#0e0e51;stroke-linecap:round;stroke-linejoin:round;stroke-width:1.44px;}.cls-5{fill:#42e29d;stroke:#fff;stroke-miterlimit:10;stroke-width:2px;}.cls-6{fill:#d1495b;}</style></defs><title>GradeCraft--Mockups-GettingStarted_v12</title><g id="newGraphics"><path class="cls-1" d="M205.87,178.76a141.65,141.65,0,0,1-38.22-10.57,141.88,141.88,0,0,1,39.65-.71c21.5,2.72,39.19-3.73,38.22,10.56C244.64,191,227.38,181.48,205.87,178.76Z"/><path class="cls-2" d="M126.47,71.81S143.34,59,131.21,50.9a9.39,9.39,0,0,1,10.52,2.16C146.75,58,135.45,70.86,126.47,71.81Z"/><path class="cls-3" d="M126.83,71.47s25.32-2.11,18.25-18a11.25,11.25,0,0,1,9.23,9C156.22,70.56,136.51,76.3,126.83,71.47Z"/><path class="cls-4" d="M144.82,193.45l-1.38-.88c-2.46-5.17,3.38-12.77,3.38-12.77"/><path class="cls-4" d="M168.65,197.65l-1.38-.87c-2.46-5.18,3.39-12.77,3.39-12.77"/><path class="cls-3" d="M187.54,123.07c20,9,37,24.7,35.33,30.77-2.16,7.9-23.66,12.08-45.92,7-21.12-4.87-31.93-31.69-28.23-42.42C152.29,108.05,167.8,114.14,187.54,123.07Z"/><path class="cls-5" d="M182.66,124.78c12.63,28.6,63.63,52.69,11.9,59.24-25.84,3.28-89.75,8.06-89-55.54.39-33.52,10-57.92,23.51-60.69C175.33,58.25,172.93,102.76,182.66,124.78Z"/><path class="cls-2" d="M171,134.69c18.38,11.93,32.54,30.67,30.3,35.73-3.31,7.49-25.21,8.38-46.44,0-20.15-8-26.81-36.13-21.53-46.18C138.41,114.53,152.83,122.89,171,134.69Z"/><path class="cls-1" d="M126.49,90.47A2.46,2.46,0,1,1,124,88,2.46,2.46,0,0,1,126.49,90.47Z"/><polyline class="cls-4" points="141.05 195.66 143.25 192.68 138.54 192.98"/><polyline class="cls-4" points="164.88 199.86 167.08 196.89 162.37 197.19"/><path class="cls-6" d="M112.46,88c1.33,0,1.6,1.59,1.6,3.56s-.27,3.55-1.6,3.55-8-1.59-8-3.55S111.14,88,112.46,88Z"/></g></svg>