<svg xmlns="http://www.w3.org/2000/svg" viewBox="0 0 350 250"><defs><style>.cls-1,.cls-16,.cls-3,.cls-7{fill:#3b3b49;}.cls-2{fill:#d9f4ff;}.cls-16,.cls-3,.cls-4,.cls-7{stroke:#3b3b49;}.cls-10,.cls-15,.cls-16,.cls-3,.cls-4,.cls-6,.cls-7,.cls-9{stroke-linejoin:round;}.cls-13,.cls-14,.cls-4,.cls-9{fill:none;}.cls-13,.cls-14,.cls-15,.cls-16,.cls-4,.cls-6,.cls-7,.cls-9{stroke-linecap:round;}.cls-12,.cls-4,.cls-6,.cls-9{stroke-width:2px;}.cls-5{fill:#0e0e51;}.cls-6{fill:#d8855b;}.cls-10,.cls-12,.cls-6{stroke:#fff;}.cls-8{fill:#ffffb0;}.cls-9{stroke:#dee3e5;}.cls-10{fill:#dee3e5;}.cls-11{fill:#ba0c70;}.cls-12{fill:#1db35f;}.cls-12,.cls-13,.cls-14{stroke-miterlimit:10;}.cls-13{stroke:#1db35f;stroke-width:1.73px;}.cls-14{stroke:#ccf28b;stroke-width:1.3px;}.cls-15{fill:#ffdb45;stroke:#f3c300;}.cls-16{stroke-width:1.74px;}</style></defs><title>GradeCraft--Mockups-GettingStarted_v12</title><g id="newGraphics"><path class="cls-1" d="M214.08,127.4c1.15,4.83,6.07,7.1,13.81,7.34s13-2.05,14.24-6.47C244,121.53,241,114.39,228.54,114,215,113.58,212.47,120.6,214.08,127.4Z"/><circle class="cls-2" cx="237.14" cy="122.47" r="1.35"/><path class="cls-2" d="M229.74,122.24a1.35,1.35,0,1,0,1.39-1.3A1.35,1.35,0,0,0,229.74,122.24Z"/><polygon class="cls-3" points="233.17 115.31 230.7 111.2 228.31 115.88 233.17 115.31"/><polygon class="cls-3" points="236.32 116.41 240.71 114.47 239.98 119.67 236.32 116.41"/><path class="cls-4" d="M223.67,123.49s-3,3.15-5.59,3.26c-3.91.17-8.16-4.21-5.77-10.5s-6.43-6.89-6.05-2.63"/><path class="cls-1" d="M234.66,134.75c0,1.24.42,2.26,1,2.28s1.13-1,1.17-2.21-.42-2.26-1-2.27S234.7,133.51,234.66,134.75Z"/><path class="cls-1" d="M231.74,135.11c0,1.24.42,2.26,1,2.28s1.13-1,1.17-2.21-.42-2.26-1-2.28S231.78,133.87,231.74,135.11Z"/><path class="cls-1" d="M221.42,134.34c0,1.24.42,2.26,1,2.28s1.13-1,1.17-2.21-.42-2.26-1-2.28S221.46,133.1,221.42,134.34Z"/><path class="cls-1" d="M218.52,134.25c0,1.24.42,2.26,1,2.28s1.13-1,1.17-2.21-.42-2.26-1-2.28S218.56,133,218.52,134.25Z"/><ellipse class="cls-5" cx="208.67" cy="83.46" rx="6.61" ry="10.61" transform="translate(58.6 250.76) rotate(-69.91)"/><ellipse class="cls-5" cx="131.38" cy="84.93" rx="10.61" ry="6.61" transform="translate(-23.9 65.92) rotate(-25.9)"/><path class="cls-6" d="M124,196.05C117.58,145.5,103.16,71.75,175,72.8c59.14.86,53.43,73.17,50.11,123.25"/><path class="cls-7" d="M249,194a2.76,2.76,0,1,1,2.76,2.76A2.76,2.76,0,0,1,249,194Z"/><path class="cls-7" d="M247.28,184.48a1.71,1.71,0,1,0,1.71-1.71A1.72,1.72,0,0,0,247.28,184.48Z"/><path class="cls-7" d="M95.5,197a.91.91,0,1,0,.9-.9A.9.9,0,0,0,95.5,197Z"/><path class="cls-8" d="M164,115.87c0-1.7,2.05-2.05,4.57-2.05s4.58.35,4.58,2.05-2.05,4.11-4.58,4.11A4.8,4.8,0,0,1,164,115.87Z"/><path class="cls-5" d="M188,111.36a3.17,3.17,0,1,1-3.17-3.17A3.17,3.17,0,0,1,188,111.36Z"/><path class="cls-5" d="M159.53,111.36a3.17,3.17,0,1,1-3.17-3.17A3.17,3.17,0,0,1,159.53,111.36Z"/><path class="cls-9" d="M164.29,74.6s-3.56,2.47-6.13,2c-3.87-.64-7.12-5.8-3.48-11.47s-4.87-8.06-5.38-3.81"/><path class="cls-10" d="M179.78,54.42l.45-4.18-3.88,1.86a11.91,11.91,0,0,0-9.37,0l-3.87-1.86.45,4.18c-4.13,4-5.92,10.76-5.92,16,0,7.94,6.28,9,14,9s14-1,14-9C185.7,65.18,183.91,58.38,179.78,54.42Z"/><path class="cls-11" d="M168.41,58.45a1.35,1.35,0,1,1-1.34-1.34A1.34,1.34,0,0,1,168.41,58.45Z"/><path class="cls-11" d="M177.62,58.45a1.35,1.35,0,1,1-1.35-1.34A1.34,1.34,0,0,1,177.62,58.45Z"/><path class="cls-12" d="M197.06,75s-11.57,12-24.88,12.14a25.78,25.78,0,0,1-11.61-2.72A68.78,68.78,0,0,1,147.31,75s14.55-16,27.2-11.34a33.71,33.71,0,0,1,10.65,6.52A19.94,19.94,0,0,0,197.06,75Z"/><path class="cls-13" d="M141.63,77.83s1.62-2.16,3-2.62c1.69-.55,7.12-.29,7.12-.29"/><path class="cls-14" d="M185.12,75.89s-8.08-1.75-12.2-1.54c-3.35.16-4.78-1.95-8.52-1.95a21.24,21.24,0,0,0-8.1,1.74"/><path class="cls-14" d="M174.2,74.22A5.79,5.79,0,0,1,177,72a20.7,20.7,0,0,1,3.45-.62"/><path class="cls-14" d="M170,74.14a5.76,5.76,0,0,0,1.89,3,20.5,20.5,0,0,0,3.07,1.7"/><path class="cls-14" d="M166.43,72.14a5.78,5.78,0,0,1,2.76-2.28,21.92,21.92,0,0,1,3.46-.62"/><path class="cls-14" d="M160.76,72.78a5.8,5.8,0,0,0,1.89,3,21.11,21.11,0,0,0,3.07,1.69"/><path class="cls-15" d="M204.77,151.5c.53,41.13-14,43.83-31.86,43.83S139.33,189,140.13,151.5Z"/><path class="cls-6" d="M147.56,139.47a23.86,23.86,0,0,1,3.7,5.55c2.14,4.74,0,7.23-2.27,8.7-3.08,1.95-8.57,1.25-12.19-7.29"/><path class="cls-6" d="M197.12,139.47c-7.2,8.52-4.5,12.29-1.42,14.25s8.57,1.25,12.19-7.29"/><path class="cls-7" d="M172.91,189.93a2.7,2.7,0,0,0-2,.9,4.87,4.87,0,0,0-5.11-1.16,4.73,4.73,0,0,0,.09-.93,5.72,5.72,0,0,0-5.84-5.59,5.93,5.93,0,0,0-3.79,1.34,2.84,2.84,0,0,0-2-1.05l-1.07-.14c0-.11,0-.22,0-.34a2.78,2.78,0,0,0-5.54-.37,7.15,7.15,0,0,0-3.93.55,3.74,3.74,0,0,0-1.93-.55,3.67,3.67,0,0,0-2.44,6.43l-.33.6a3.61,3.61,0,0,0-.22.48,3.24,3.24,0,0,0-.63,6.37c.14,1.83.57,3.29,1.36,3.29h29.6s3.31-1.53,3.79-4.43h0a2.7,2.7,0,1,0,0-5.4Z"/><path class="cls-7" d="M173.43,189.85a2.7,2.7,0,0,1,2,.9,4.85,4.85,0,0,1,5.1-1.16,5.64,5.64,0,0,1-.08-.93,5.71,5.71,0,0,1,5.84-5.59,5.93,5.93,0,0,1,3.79,1.34,2.84,2.84,0,0,1,2-1l1.07-.14a1.86,1.86,0,0,1,0-.34,2.79,2.79,0,0,1,5.55-.37,7.15,7.15,0,0,1,3.93.55,3.68,3.68,0,0,1,5.62,3.13,3.66,3.66,0,0,1-1.25,2.75l.33.6a3.61,3.61,0,0,1,.22.48,3.24,3.24,0,0,1,.62,6.37c-.13,1.83-.56,3.29-1.35,3.29h-29.6s-3.32-1.53-3.8-4.43h0a2.7,2.7,0,0,1,0-5.4Z"/><path class="cls-7" d="M208,189.93a2.67,2.67,0,0,1,2,.9,4.87,4.87,0,0,1,5.11-1.16,5.64,5.64,0,0,1-.09-.93,5.72,5.72,0,0,1,5.85-5.59,5.93,5.93,0,0,1,3.79,1.34,2.82,2.82,0,0,1,2.05-1.05l1.06-.14c0-.11,0-.22,0-.34a2.79,2.79,0,0,1,5.55-.37,7.15,7.15,0,0,1,3.93.55,3.68,3.68,0,0,1,5.61,3.13,3.62,3.62,0,0,1-1.25,2.75l.33.6a2.67,2.67,0,0,1,.22.48,3.24,3.24,0,0,1,.63,6.37c-.14,1.83-.57,3.29-1.35,3.29h-29.6s-3.32-1.53-3.8-4.43h0a2.7,2.7,0,1,1,0-5.4Z"/><path class="cls-7" d="M138.94,189.93a2.67,2.67,0,0,0-2,.9,4.87,4.87,0,0,0-5.11-1.16,5.64,5.64,0,0,0,.09-.93,5.72,5.72,0,0,0-5.85-5.59,5.93,5.93,0,0,0-3.79,1.34,2.82,2.82,0,0,0-2-1.05l-1.06-.14c0-.11,0-.22,0-.34a2.79,2.79,0,0,0-5.55-.37,7.15,7.15,0,0,0-3.93.55,3.68,3.68,0,0,0-5.62,3.13,3.66,3.66,0,0,0,1.25,2.75l-.33.6c-.07.14-.15.3-.22.48a3.24,3.24,0,0,0-.62,6.37c.14,1.83.57,3.29,1.35,3.29h29.6s3.32-1.53,3.8-4.43h0a2.7,2.7,0,0,0,0-5.4Z"/><path class="cls-16" d="M125.82,196.11a4,4,0,0,0,4.1,3.29h89.62a40,40,0,0,0,9.08-2.51"/></g></svg>