<svg xmlns="http://www.w3.org/2000/svg" viewBox="0 0 350 250"><defs><style>.cls-1{fill:#1db35f;}.cls-12,.cls-2{fill:#d8855b;stroke-width:1.65px;}.cls-12,.cls-2,.cls-3,.cls-6{stroke:#fff;}.cls-2,.cls-3,.cls-4{stroke-linecap:round;stroke-linejoin:round;}.cls-3{fill:#f47c2c;}.cls-3,.cls-6{stroke-width:2px;}.cls-4{fill:#3b3b49;stroke:#3b3b49;stroke-width:0.83px;}.cls-5{fill:none;stroke:#3c3c4a;stroke-width:3.3px;}.cls-12,.cls-5,.cls-6{stroke-miterlimit:10;}.cls-6{fill:#ff5f5f;}.cls-7{fill:#0e0e51;}.cls-8{fill:#f1f2f2;}.cls-9{fill:#193c67;}.cls-10{fill:#ffdb45;}.cls-11{fill:#1d184f;}.cls-13{fill:#6eccf6;}.cls-14{fill:#fff;}</style></defs><title>GradeCraft--Mockups-GettingStarted_v12</title><g id="newGraphics"><path class="cls-1" d="M222.8,63.31a.58.58,0,0,0-1.11-.33L213,83.25l4.1-21.66a.58.58,0,0,0-1.11-.34l-8.64,20.23,4.11-21.71a.58.58,0,0,0-1.11-.34L198.25,87.78a.59.59,0,0,0,.37.78L204,90.2a.49.49,0,0,0,.26.18l5.67,1.73.71.22,5.67,1.72a.59.59,0,0,0,.75-.45Z"/><path class="cls-2" d="M193.39,143.16l-8.49,43.61,54.76,0-8.46-43.62s-5.49-1.73-18.75-1.46S193.39,143.16,193.39,143.16Z"/><rect class="cls-3" x="179.15" y="186.79" width="66.26" height="12.62"/><path class="cls-4" d="M268.61,197.33a2.28,2.28,0,1,1,2.28,2.28A2.28,2.28,0,0,1,268.61,197.33Z"/><path class="cls-4" d="M228.52,195.31a.75.75,0,1,0,.75-.75A.76.76,0,0,0,228.52,195.31Z"/><path class="cls-5" d="M208.76,133.57s42.58,13,20.51,30.79"/><path class="cls-4" d="M263.61,191.89a2.24,2.24,0,0,0-1.66.74,4,4,0,0,0-4.21-1,4.67,4.67,0,0,0,.07-.76,4.73,4.73,0,0,0-4.83-4.62,5,5,0,0,0-3.13,1.1,2.35,2.35,0,0,0-1.69-.86l-.88-.12a2.4,2.4,0,0,0,0-.28,2.31,2.31,0,0,0-4.59-.3,5.76,5.76,0,0,0-3.24.46,3,3,0,0,0-3.61,4.85l-.27.49a2.1,2.1,0,0,0-.18.4,2.67,2.67,0,0,0-.52,5.26c.11,1.51.47,2.72,1.12,2.72h24.45s2.73-1.26,3.13-3.66h0a2.23,2.23,0,0,0,0-4.46Z"/><path class="cls-5" d="M176.13,121.9s-21.27,1.24-37.48-19.72"/><path class="cls-4" d="M267.2,189.5a1.42,1.42,0,1,0,1.41-1.41A1.42,1.42,0,0,0,267.2,189.5Z"/><path class="cls-6" d="M220.46,96.66c-2.84-7.87-15.86-11.46-23.66-10.18-12,2-28.23,45.41-32.51,61.34-5.41,20.08-23.83,31.82-36,34-10.67,1.89-22.26-4.23-34.35-4.45-3.82-.07-4.89,6-1.21,6.69,0,0,22.07,2.89,21.87,5.62-.22,2.89-19.81.67-24.66,1.76-3.66.83-1.49,6.85,2.21,6.22,0,0,46.5,2.74,68.36-.43,18.28-2.65,27.85-19.23,32.2-26.36C203.14,153.68,223.82,106,220.46,96.66Z"/><path class="cls-7" d="M196.79,105.72c-.53,1.64-1.46-.15-3.1-.68s-3.36.4-2.83-1.24a3.12,3.12,0,1,1,5.93,1.92Z"/><path class="cls-7" d="M211.55,109.48c-.53,1.64-1.49-.1-3.12-.63s-3.34.33-2.8-1.3a3.11,3.11,0,1,1,5.92,1.93Z"/><path class="cls-8" d="M184.33,106.32c-.15.61-1.37.85-2.74.53s-2.37-1.07-2.23-1.68,1.36-.85,2.74-.53S184.47,105.71,184.33,106.32Z"/><path class="cls-8" d="M219.07,115.57c-.14.61-1.36.85-2.74.53s-2.37-1.07-2.22-1.68,1.36-.85,2.74-.53S219.22,115,219.07,115.57Z"/><path class="cls-9" d="M197.84,136.25c-4.22-1.66-5.78-7.74-5.78-7.74s5.29-3.36,9.51-1.69S202.06,137.92,197.84,136.25Z"/><path class="cls-9" d="M182.55,130.21c4.22,1.67,9.51-1.7,9.51-1.7s-1.56-6.07-5.78-7.74S178.32,128.54,182.55,130.21Z"/><path class="cls-10" d="M194,129.26a2,2,0,1,0-2.64,1.15A2,2,0,0,0,194,129.26Z"/><path class="cls-11" d="M234.29,163.9c.73,3.4-1,6.09-6.09,7.12s-11.35-.52-12-3.92,4.44-7.33,9.49-8.36S233.57,160.49,234.29,163.9Z"/><path class="cls-12" d="M232.51,149.93l-1.31-6.76s-3.93-1.24-13.17-1.46"/><path class="cls-11" d="M141.65,99.5c.72-3.41-1-6.09-6.09-7.12s-11.36.51-12,3.92,4.44,7.33,9.5,8.36S140.93,102.91,141.65,99.5Z"/><rect class="cls-10" x="137.14" y="52.06" width="4.67" height="4.67" transform="translate(2.39 114.56) rotate(-45)"/><rect class="cls-10" x="121.16" y="74.69" width="4.67" height="4.67" transform="translate(-18.3 109.88) rotate(-45)"/><rect class="cls-10" x="137.92" y="86.94" width="4.67" height="4.67" transform="translate(-22.05 125.3) rotate(-44.99)"/><circle class="cls-13" cx="138.11" cy="77.03" r="1.65"/><circle class="cls-13" cx="131.12" cy="87.91" r="1.65"/><circle class="cls-13" cx="143.48" cy="65.65" r="1.65"/><path class="cls-13" d="M132.77,63a1.65,1.65,0,1,1-1.65-1.65A1.65,1.65,0,0,1,132.77,63Z"/><circle class="cls-13" cx="122.59" cy="51.65" r="1.65"/><path class="cls-14" d="M233.91,153.21l-1.54.3-1-5,1.62-.32s.4,2,.51,2.63c.05.32.17,1,.25,1.5S233.91,153.21,233.91,153.21Z"/></g></svg>