<svg xmlns="http://www.w3.org/2000/svg" xmlns:xlink="http://www.w3.org/1999/xlink" viewBox="0 0 350 250"><defs><style>.cls-1,.cls-11,.cls-2{fill:none;}.cls-1,.cls-3,.cls-4,.cls-6{stroke:#fff;stroke-width:2px;}.cls-1,.cls-2,.cls-4,.cls-6{stroke-miterlimit:10;}.cls-2{stroke:#3c3c4a;stroke-width:4.05px;}.cls-3,.cls-9{fill:#d9f4ff;}.cls-11,.cls-3{stroke-linecap:round;}.cls-10,.cls-11,.cls-3{stroke-linejoin:round;}.cls-4{fill:#ffdb45;}.cls-5{clip-path:url(#clip-path);}.cls-6{fill:#ff9087;}.cls-7{fill:#0e0e51;}.cls-10,.cls-8{fill:#3b3b49;}.cls-10,.cls-11{stroke:#3b3b49;}.cls-10{stroke-width:1.01px;}.cls-11{stroke-width:2.02px;}.cls-12{fill:#ba0c70;}</style><clipPath id="clip-path"><path class="cls-1" d="M238.6,115.59C264.2,90,209.26,50.05,173.07,50.05s-91.13,40-65.54,65.54C130.7,138.76,215.43,138.76,238.6,115.59Z"/></clipPath></defs><title>GradeCraft--Mockups-GettingStarted_v12</title><g id="newGraphics"><path class="cls-2" d="M145.38,154s-13.44,22.38-45.84,24.32"/><path class="cls-2" d="M198.35,160.27s20.3,16.41,51.4,7.09"/><path class="cls-3" d="M200.41,192.7c-9.67,9.66-45,9.66-54.68,0-11.63-11.64,0-65.81,0-65.81h54.68S212,181.06,200.41,192.7Z"/><path class="cls-4" d="M238.6,115.59C264.2,90,209.26,50.05,173.07,50.05s-91.13,40-65.54,65.54C130.7,138.76,215.43,138.76,238.6,115.59Z"/><g class="cls-5"><path class="cls-6" d="M127.68,90.07c0,8.51-5,16.86-18.47,16.86S84.8,100,84.8,91.51s10.93-15.42,24.41-15.42S127.68,81.55,127.68,90.07Z"/><path class="cls-6" d="M257.08,117.54c0,8.52-10.93,15.43-24.41,15.43s-26.11-7.08-24.42-15.43c2.21-10.85,10.66-11.54,24.14-11.54S257.08,109,257.08,117.54Z"/><path class="cls-6" d="M220.24,56.52c0,8.52-10.89,6.57-23.32,11.78C187.2,72.37,171,69.62,171,61.1s11.31-20,24.79-20S220.24,48,220.24,56.52Z"/><path class="cls-6" d="M196.75,93.48c0,8.52-10.93,15.43-24.41,15.43S147.93,102,147.93,93.48s12.57-10.57,26-10.57S196.75,79.5,196.75,93.48Z"/><path class="cls-6" d="M160.63,133.47c0,8.52-10.93,15.42-24.41,15.42s-24.41-6.9-24.41-15.42,11.49-13.86,25-13.86S160.63,119.48,160.63,133.47Z"/></g><path class="cls-1" d="M238.6,115.59C264.2,90,209.26,50.05,173.07,50.05s-91.13,40-65.54,65.54C130.7,138.76,215.43,138.76,238.6,115.59Z"/><path class="cls-7" d="M167.56,155.47c-.08,2.11-1.78.32-3.89.25s-3.82,1.6-3.75-.51a3.82,3.82,0,1,1,7.64.26Z"/><path class="cls-7" d="M186.21,155.48c-.08,2.11-1.78.39-3.89.31s-3.82,1.51-3.74-.59a3.82,3.82,0,1,1,7.63.28Z"/><path class="cls-8" d="M108,168.08c3.38,3.72,8.85,3.33,15.83-.24s10.55-8.18,9.46-12.68c-1.66-6.87-7.78-11.75-19-6C102.08,155.4,103.29,162.84,108,168.08Z"/><circle class="cls-9" cx="126.07" cy="152.45" r="1.36"/><path class="cls-9" d="M119.39,155.86a1.36,1.36,0,1,0,2.43-1.24,1.36,1.36,0,0,0-2.43,1.24Z"/><polygon class="cls-10" points="119.06 148.05 114.86 145.61 115.02 150.92 119.06 148.05"/><polygon class="cls-10" points="122.38 147.48 125.32 143.62 127.22 148.58 122.38 147.48"/><path class="cls-11" d="M114.62,159.94s-1.1,4.24-3.36,5.61c-3.38,2.06-9.29.26-10.24-6.49-.94-6.58-9.06-3-6.65.63"/><path class="cls-8" d="M129.86,164.55c.57,1.12,1.48,1.8,2,1.52s.53-1.41,0-2.53-1.48-1.8-2-1.52S129.29,163.43,129.86,164.55Z"/><path class="cls-8" d="M127.45,166.3c.57,1.11,1.48,1.79,2,1.51s.53-1.41,0-2.53-1.47-1.79-2-1.51S126.88,165.18,127.45,166.3Z"/><path class="cls-8" d="M117.93,170.65c.57,1.12,1.48,1.8,2,1.52s.53-1.42,0-2.53-1.47-1.8-2-1.52S117.36,169.53,117.93,170.65Z"/><path class="cls-8" d="M115.31,172c.57,1.12,1.48,1.79,2,1.51s.53-1.41,0-2.53-1.47-1.79-2-1.51S114.74,170.87,115.31,172Z"/><path class="cls-12" d="M105.65,176.49c-1.22-4.09-4.68-6-10.73-4.09S83,179.61,84.34,183.64s9.07,5.28,15.12,3.43C105.46,185.38,106.87,180.58,105.65,176.49Z"/><path class="cls-12" d="M243.37,167.73c-.26-4.26,2.36-7.19,8.67-7.53s13.67,2.68,13.8,6.92-6.7,8.08-13,8.42S243.63,172,243.37,167.73Z"/></g></svg>